<svg xmlns="http://www.w3.org/2000/svg" width="662" height="167" style="
        width:662px;
        height:167px;
        background: transparent;
        fill: none;
">
        
        <svg xmlns="http://www.w3.org/2000/svg"><g class="shapes-region" style="stroke: black; fill: none;"><g class="arrow-line"><path class="connection real" stroke-dasharray="" d="  M171,15.07 L428.5,15.07" style="stroke: rgb(0, 0, 0); stroke-width: 8; fill: none;"/></g><g class="grouped-shape"><g class="arrow-line"><path class="connection real" stroke-dasharray="" d="  M205.77,14.67 L255.39,123.41" style="stroke: rgb(0, 0, 0); stroke-width: 4; fill: none;"/></g><g class="composite-shape ignore-highlight"><path class="real" d=" M245.61,140.09 C245.61,130.21 253.34,122.19 262.87,122.19 C272.41,122.19 280.14,130.21 280.14,140.09 C280.14,149.98 272.41,158 262.87,158 C253.34,158 245.61,149.98 245.61,140.09 Z" style="stroke-width: 1; stroke: rgb(0, 0, 0); fill: none;"/></g></g><g class="grouped-shape"><g class="arrow-line"><path class="connection real" stroke-dasharray="" d="  M295.68,14.67 L345.3,123.41" style="stroke: rgb(0, 0, 0); stroke-width: 4; fill: none;"/></g><g class="composite-shape ignore-highlight"><path class="real" d=" M335.52,140.09 C335.52,130.21 343.25,122.19 352.78,122.19 C362.32,122.19 370.05,130.21 370.05,140.09 C370.05,149.98 362.32,158 352.78,158 C343.25,158 335.52,149.98 335.52,140.09 Z" style="stroke-width: 1; stroke: rgb(0, 0, 0); fill: none;"/></g></g><g class="grouped-shape"><g class="arrow-line"><path class="connection real" stroke-dasharray="" d="  M386.38,14.67 L436,123.41" style="stroke: rgb(0, 0, 0); stroke-width: 4; fill: none;"/></g><g class="composite-shape ignore-highlight"><path class="real" d=" M426.22,140.09 C426.22,130.21 433.95,122.19 443.49,122.19 C453.03,122.19 460.76,130.21 460.76,140.09 C460.76,149.98 453.03,158 443.49,158 C433.95,158 426.22,149.98 426.22,140.09 Z" style="stroke-width: 1; stroke: rgb(0, 0, 0); fill: none;"/></g></g><g class="grouped-shape"><g class="grouped-shape"><g class="arrow-line"><path class="connection real" stroke-dasharray="" d="  M233.58,79.81 L254.07,79.88" style="stroke: rgb(0, 0, 0); stroke-width: 1; fill: none;"/></g><g class="grouped-shape"><g class="arrow-line"><path class="connection real" stroke-dasharray="" d="  M253.47,79.88 L257.11,89.1" style="stroke: rgb(0, 0, 0); stroke-width: 1; fill: none;"/></g><g class="arrow-line"><path class="connection real" stroke-dasharray="" d="  M257.11,89.1 L261.73,70" style="stroke: rgb(0, 0, 0); stroke-width: 1; fill: none;"/></g><g class="arrow-line"><path class="connection real" stroke-dasharray="" d="  M261.84,70 L265.77,80.02" style="stroke: rgb(0, 0, 0); stroke-width: 1; fill: none;"/></g></g><g class="arrow-line"><path class="connection real" stroke-dasharray="" d="  M302.47,80.02 L323.49,79.81" style="stroke: rgb(0, 0, 0); stroke-width: 1; fill: none;"/></g><g class="grouped-shape"><g class="arrow-line"><path class="connection real" stroke-dasharray="" d="  M265.77,80.02 L269.41,89.23" style="stroke: rgb(0, 0, 0); stroke-width: 1; fill: none;"/></g><g class="arrow-line"><path class="connection real" stroke-dasharray="" d="  M269.41,89.23 L274.03,70.13" style="stroke: rgb(0, 0, 0); stroke-width: 1; fill: none;"/></g><g class="arrow-line"><path class="connection real" stroke-dasharray="" d="  M274.14,70.13 L278.07,80.15" style="stroke: rgb(0, 0, 0); stroke-width: 1; fill: none;"/></g></g><g class="grouped-shape"><g class="arrow-line"><path class="connection real" stroke-dasharray="" d="  M278.07,80.15 L281.71,89.37" style="stroke: rgb(0, 0, 0); stroke-width: 1; fill: none;"/></g><g class="arrow-line"><path class="connection real" stroke-dasharray="" d="  M281.71,89.37 L286.33,70.27" style="stroke: rgb(0, 0, 0); stroke-width: 1; fill: none;"/></g><g class="arrow-line"><path class="connection real" stroke-dasharray="" d="  M286.44,70.27 L290.37,80.29" style="stroke: rgb(0, 0, 0); stroke-width: 1; fill: none;"/></g></g><g class="grouped-shape"><g class="arrow-line"><path class="connection real" stroke-dasharray="" d="  M290.37,80.29 L294.01,89.5" style="stroke: rgb(0, 0, 0); stroke-width: 1; fill: none;"/></g><g class="arrow-line"><path class="connection real" stroke-dasharray="" d="  M294.01,89.5 L298.63,70.4" style="stroke: rgb(0, 0, 0); stroke-width: 1; fill: none;"/></g><g class="arrow-line"><path class="connection real" stroke-dasharray="" d="  M298.74,70.4 L302.67,80.42" style="stroke: rgb(0, 0, 0); stroke-width: 1; fill: none;"/></g></g></g></g><g class="grouped-shape"><g class="grouped-shape"><g class="arrow-line"><path class="connection real" stroke-dasharray="" d="  M324.58,79.81 L345.07,79.88" style="stroke: rgb(0, 0, 0); stroke-width: 1; fill: none;"/></g><g class="grouped-shape"><g class="arrow-line"><path class="connection real" stroke-dasharray="" d="  M344.47,79.88 L348.11,89.1" style="stroke: rgb(0, 0, 0); stroke-width: 1; fill: none;"/></g><g class="arrow-line"><path class="connection real" stroke-dasharray="" d="  M348.11,89.1 L352.73,70" style="stroke: rgb(0, 0, 0); stroke-width: 1; fill: none;"/></g><g class="arrow-line"><path class="connection real" stroke-dasharray="" d="  M352.84,70 L356.77,80.02" style="stroke: rgb(0, 0, 0); stroke-width: 1; fill: none;"/></g></g><g class="arrow-line"><path class="connection real" stroke-dasharray="" d="  M393.47,80.02 L414.49,79.81" style="stroke: rgb(0, 0, 0); stroke-width: 1; fill: none;"/></g><g class="grouped-shape"><g class="arrow-line"><path class="connection real" stroke-dasharray="" d="  M356.77,80.02 L360.41,89.23" style="stroke: rgb(0, 0, 0); stroke-width: 1; fill: none;"/></g><g class="arrow-line"><path class="connection real" stroke-dasharray="" d="  M360.41,89.23 L365.03,70.13" style="stroke: rgb(0, 0, 0); stroke-width: 1; fill: none;"/></g><g class="arrow-line"><path class="connection real" stroke-dasharray="" d="  M365.14,70.13 L369.07,80.15" style="stroke: rgb(0, 0, 0); stroke-width: 1; fill: none;"/></g></g><g class="grouped-shape"><g class="arrow-line"><path class="connection real" stroke-dasharray="" d="  M369.07,80.15 L372.71,89.37" style="stroke: rgb(0, 0, 0); stroke-width: 1; fill: none;"/></g><g class="arrow-line"><path class="connection real" stroke-dasharray="" d="  M372.71,89.37 L377.33,70.27" style="stroke: rgb(0, 0, 0); stroke-width: 1; fill: none;"/></g><g class="arrow-line"><path class="connection real" stroke-dasharray="" d="  M377.44,70.27 L381.37,80.29" style="stroke: rgb(0, 0, 0); stroke-width: 1; fill: none;"/></g></g><g class="grouped-shape"><g class="arrow-line"><path class="connection real" stroke-dasharray="" d="  M381.37,80.29 L385.01,89.5" style="stroke: rgb(0, 0, 0); stroke-width: 1; fill: none;"/></g><g class="arrow-line"><path class="connection real" stroke-dasharray="" d="  M385.01,89.5 L389.63,70.4" style="stroke: rgb(0, 0, 0); stroke-width: 1; fill: none;"/></g><g class="arrow-line"><path class="connection real" stroke-dasharray="" d="  M389.74,70.4 L393.67,80.42" style="stroke: rgb(0, 0, 0); stroke-width: 1; fill: none;"/></g></g></g></g><g class="arrow-line"><path class="connection real" stroke-dasharray="" d="  M497,32.67 L497,67.33" style="stroke: rgb(0, 0, 0); stroke-width: 1; fill: none;"/><g stroke="#000" transform="matrix(-1.8369701987210297e-16,-1,1,-1.8369701987210297e-16,497,69.33333333333337)" style="stroke: rgb(0, 0, 0); stroke-width: 1;"><path d=" M10.93,-3.29 Q4.96,-0.45 0,0 Q4.96,0.45 10.93,3.29"/></g></g><g class="arrow-line"><path class="connection real" stroke-dasharray="" d="  M141,15.07 L141,80.03" style="stroke: rgb(0, 0, 0); stroke-width: 1; fill: none;"/><g stroke="#000" transform="matrix(-1.8369701987210297e-16,-1,1,-1.8369701987210297e-16,141,80.03313684735602)" style="stroke: rgb(0, 0, 0); stroke-width: 1;"><path d=" M0,5.59 L0,-5.59"/></g><g stroke="#000" transform="matrix(-1.8369701987210297e-16,-1,1,-1.8369701987210297e-16,141,15.066273694712038)" style="stroke: rgb(0, 0, 0); stroke-width: 1;"><path d=" M0,5.59 L0,-5.59"/></g></g><g class="arrow-line"><path class="connection real" stroke-dasharray="" d="  M141,80.03 L141,145" style="stroke: rgb(0, 0, 0); stroke-width: 1; fill: none;"/><g stroke="#000" transform="matrix(-1.8369701987210297e-16,-1,1,-1.8369701987210297e-16,141,144.99999999999997)" style="stroke: rgb(0, 0, 0); stroke-width: 1;"><path d=" M0,5.59 L0,-5.59"/></g><g stroke="#000" transform="matrix(-1.8369701987210297e-16,-1,1,-1.8369701987210297e-16,141,80.03313684735602)" style="stroke: rgb(0, 0, 0); stroke-width: 1;"><path d=" M0,5.59 L0,-5.59"/></g></g><g class="grouped-shape"><g class="arrow-line"><path class="connection real" stroke-dasharray="" d="  M205.25,17.07 L205.25,56.2" style="stroke: rgb(0, 0, 0); stroke-width: 1; fill: none;"/></g><g class="arrow-line"><path class="connection real" stroke-dasharray="" d="  M205.02,46.65 C206.02,48.05 214.22,50.05 219.4,44.4" style="stroke: rgb(0, 0, 0); stroke-width: 1; fill: none;"/></g></g><g class="grouped-shape"><g class="arrow-line"><path class="connection real" stroke-dasharray="" d="  M295.75,17.57 L295.75,56.7" style="stroke: rgb(0, 0, 0); stroke-width: 1; fill: none;"/></g><g class="arrow-line"><path class="connection real" stroke-dasharray="" d="  M295.52,47.15 C296.52,48.55 304.72,50.55 309.9,44.9" style="stroke: rgb(0, 0, 0); stroke-width: 1; fill: none;"/></g></g><g class="grouped-shape"><g class="arrow-line"><path class="connection real" stroke-dasharray="" d="  M386.25,17.57 L386.25,56.7" style="stroke: rgb(0, 0, 0); stroke-width: 1; fill: none;"/></g><g class="arrow-line"><path class="connection real" stroke-dasharray="" d="  M386.02,47.15 C387.02,48.55 395.22,50.55 400.4,44.9" style="stroke: rgb(0, 0, 0); stroke-width: 1; fill: none;"/></g></g><g class="intersections-group"><g style="stroke: rgb(0, 0, 0); stroke-width: 1; fill: none;"/></g></g><g/><g/><!-- react-empty: 345 --></svg>
        <svg xmlns="http://www.w3.org/2000/svg" width="660" height="165" style="width:660px;height:165px;font-family:Asana-Math, Asana;background:transparent;"><g><g><g><g><g><g style="transform:matrix(1,0,0,1,254.316650390625,143.08331298828125);"><path d="M730 103L704 86C675 67 653 56 643 56C636 56 630 65 630 76C630 86 632 95 637 116L712 413C716 430 719 446 719 454C719 471 709 482 693 482C664 482 626 464 565 421C502 376 467 341 418 272L448 409C452 429 455 444 455 451C455 470 445 482 429 482C399 482 353 460 298 418C254 384 234 363 169 275L202 408C206 424 208 439 208 451C208 470 199 482 185 482C164 482 126 461 52 408L24 388L31 368C68 391 103 414 110 414C121 414 128 404 128 389C128 338 87 145 46 2L49 -9L117 6L139 108C163 219 190 278 245 338C287 384 332 414 360 414C367 414 371 406 371 393C371 358 349 244 308 69L292 2L297 -9L366 6L387 113C403 194 437 269 481 318C536 379 586 414 618 414C626 414 631 405 631 389C631 365 628 351 606 264C566 105 550 84 550 31C550 6 561 -9 580 -9C606 -9 642 12 740 85Z" stroke="rgb(0, 0, 0)" stroke-width="8" fill="rgb(0, 0, 0)" style="transform:matrix(0.017,0,0,-0.017,0,0);"></path></g><g><g><g><g style="transform:matrix(1,0,0,1,267.316650390625,148.466650390625);"><path d="M263 689C108 689 29 566 29 324C29 207 50 106 85 57C120 8 176 -20 238 -20C389 -20 465 110 465 366C465 585 400 689 263 689ZM245 654C342 654 381 556 381 316C381 103 343 15 251 15C154 15 113 116 113 360C113 571 150 654 245 654Z" stroke="rgb(0, 0, 0)" stroke-width="8" fill="rgb(0, 0, 0)" style="transform:matrix(0.0119,0,0,-0.0119,0,0);"></path></g></g></g></g></g></g></g></g></g><g><g><g><g><g><g style="transform:matrix(1,0,0,1,344.2333984375,143.08331298828125);"><path d="M730 103L704 86C675 67 653 56 643 56C636 56 630 65 630 76C630 86 632 95 637 116L712 413C716 430 719 446 719 454C719 471 709 482 693 482C664 482 626 464 565 421C502 376 467 341 418 272L448 409C452 429 455 444 455 451C455 470 445 482 429 482C399 482 353 460 298 418C254 384 234 363 169 275L202 408C206 424 208 439 208 451C208 470 199 482 185 482C164 482 126 461 52 408L24 388L31 368C68 391 103 414 110 414C121 414 128 404 128 389C128 338 87 145 46 2L49 -9L117 6L139 108C163 219 190 278 245 338C287 384 332 414 360 414C367 414 371 406 371 393C371 358 349 244 308 69L292 2L297 -9L366 6L387 113C403 194 437 269 481 318C536 379 586 414 618 414C626 414 631 405 631 389C631 365 628 351 606 264C566 105 550 84 550 31C550 6 561 -9 580 -9C606 -9 642 12 740 85Z" stroke="rgb(0, 0, 0)" stroke-width="8" fill="rgb(0, 0, 0)" style="transform:matrix(0.017,0,0,-0.017,0,0);"></path></g><g><g><g><g style="transform:matrix(1,0,0,1,357.2333984375,148.466650390625);"><path d="M418 -3L418 27L366 30C311 33 301 44 301 96L301 700L60 598L67 548L217 614L217 96C217 44 206 33 152 30L96 27L96 -3C250 0 250 0 261 0C292 0 402 -3 418 -3Z" stroke="rgb(0, 0, 0)" stroke-width="8" fill="rgb(0, 0, 0)" style="transform:matrix(0.0119,0,0,-0.0119,0,0);"></path></g></g></g></g></g></g></g></g></g><g><g><g><g><g><g style="transform:matrix(1,0,0,1,434.933349609375,143.08331298828125);"><path d="M730 103L704 86C675 67 653 56 643 56C636 56 630 65 630 76C630 86 632 95 637 116L712 413C716 430 719 446 719 454C719 471 709 482 693 482C664 482 626 464 565 421C502 376 467 341 418 272L448 409C452 429 455 444 455 451C455 470 445 482 429 482C399 482 353 460 298 418C254 384 234 363 169 275L202 408C206 424 208 439 208 451C208 470 199 482 185 482C164 482 126 461 52 408L24 388L31 368C68 391 103 414 110 414C121 414 128 404 128 389C128 338 87 145 46 2L49 -9L117 6L139 108C163 219 190 278 245 338C287 384 332 414 360 414C367 414 371 406 371 393C371 358 349 244 308 69L292 2L297 -9L366 6L387 113C403 194 437 269 481 318C536 379 586 414 618 414C626 414 631 405 631 389C631 365 628 351 606 264C566 105 550 84 550 31C550 6 561 -9 580 -9C606 -9 642 12 740 85Z" stroke="rgb(0, 0, 0)" stroke-width="8" fill="rgb(0, 0, 0)" style="transform:matrix(0.017,0,0,-0.017,0,0);"></path></g><g><g><g><g style="transform:matrix(1,0,0,1,447.933349609375,148.466650390625);"><path d="M16 23L16 -3C203 -3 203 0 239 0C275 0 275 -3 468 -3L468 82C353 77 307 81 122 77L304 270C401 373 431 428 431 503C431 618 353 689 226 689C154 689 105 669 56 619L39 483L68 483L81 529C97 587 133 612 200 612C286 612 341 558 341 473C341 398 299 324 186 204Z" stroke="rgb(0, 0, 0)" stroke-width="8" fill="rgb(0, 0, 0)" style="transform:matrix(0.0119,0,0,-0.0119,0,0);"></path></g></g></g></g></g></g></g></g></g><g><g><g><g><g><g style="transform:matrix(1,0,0,1,269.933349609375,60.30000305175781);"><path d="M240 722L228 733C176 707 140 698 68 691L64 670L112 670C136 670 146 663 146 646C146 638 145 629 144 622L96 354C82 279 66 210 14 1L23 -9L90 8L113 132C122 180 146 225 180 259C249 59 281 -9 306 -9C319 -9 343 4 387 35L433 67L425 86L382 62C368 54 361 52 353 52C343 52 336 58 327 75C292 139 270 193 231 316L245 330C306 391 352 416 402 416C410 416 421 414 438 410L455 473C437 479 419 482 407 482C341 482 258 405 133 230Z" stroke="rgb(0, 0, 0)" stroke-width="8" fill="rgb(0, 0, 0)" style="transform:matrix(0.017,0,0,-0.017,0,0);"></path></g><g><g><g><g style="transform:matrix(1,0,0,1,277.933349609375,65.68334045410157);"><path d="M263 689C108 689 29 566 29 324C29 207 50 106 85 57C120 8 176 -20 238 -20C389 -20 465 110 465 366C465 585 400 689 263 689ZM245 654C342 654 381 556 381 316C381 103 343 15 251 15C154 15 113 116 113 360C113 571 150 654 245 654Z" stroke="rgb(0, 0, 0)" stroke-width="8" fill="rgb(0, 0, 0)" style="transform:matrix(0.0119,0,0,-0.0119,0,0);"></path></g></g></g></g></g></g></g></g></g><g><g><g><g><g><g style="transform:matrix(1,0,0,1,363.3333740234375,60.03334045410156);"><path d="M240 722L228 733C176 707 140 698 68 691L64 670L112 670C136 670 146 663 146 646C146 638 145 629 144 622L96 354C82 279 66 210 14 1L23 -9L90 8L113 132C122 180 146 225 180 259C249 59 281 -9 306 -9C319 -9 343 4 387 35L433 67L425 86L382 62C368 54 361 52 353 52C343 52 336 58 327 75C292 139 270 193 231 316L245 330C306 391 352 416 402 416C410 416 421 414 438 410L455 473C437 479 419 482 407 482C341 482 258 405 133 230Z" stroke="rgb(0, 0, 0)" stroke-width="8" fill="rgb(0, 0, 0)" style="transform:matrix(0.017,0,0,-0.017,0,0);"></path></g><g><g><g><g style="transform:matrix(1,0,0,1,371.3333740234375,65.41666259765626);"><path d="M418 -3L418 27L366 30C311 33 301 44 301 96L301 700L60 598L67 548L217 614L217 96C217 44 206 33 152 30L96 27L96 -3C250 0 250 0 261 0C292 0 402 -3 418 -3Z" stroke="rgb(0, 0, 0)" stroke-width="8" fill="rgb(0, 0, 0)" style="transform:matrix(0.0119,0,0,-0.0119,0,0);"></path></g></g></g></g></g></g></g></g></g><g><g><g><g><g><g style="transform:matrix(1,0,0,1,504.9666748046875,73.60000610351562);"><path d="M275 482C208 482 55 419 55 259C55 182 100 136 177 136C185 136 196 136 207 137L166 99C150 84 139 66 139 52C139 42 146 31 160 19C91 -4 -37 -48 -37 -159C-37 -230 33 -276 142 -276C271 -276 384 -204 384 -121C384 -85 363 -49 320 -14L260 35C226 62 213 81 213 100C213 114 228 128 240 146C338 170 409 253 409 342C409 357 406 376 405 380C422 378 430 378 439 378C456 378 466 379 489 382L498 427L495 433C467 426 447 424 393 424C393 425 369 482 275 482ZM176 1L253 -58C299 -94 318 -121 318 -154C318 -206 249 -248 166 -248C84 -248 27 -206 27 -145C27 -43 137 -11 176 1ZM250 448C308 448 337 412 337 341C337 238 289 168 219 168C158 168 126 209 126 288C126 383 177 448 250 448Z" stroke="rgb(0, 0, 0)" stroke-width="8" fill="rgb(0, 0, 0)" style="transform:matrix(0.017,0,0,-0.017,0,0);"></path></g></g></g></g></g></g><g><g><g><g><g><g style="transform:matrix(1,0,0,1,147.5999755859375,120.60000610351562);"><path d="M349 664L352 692L238 689C222 689 204 689 161 690L97 692L94 664L141 662C165 661 176 653 176 635L81 55C77 37 65 30 21 23L16 -3L57 -2C88 -1 150 0 170 0L467 -1L500 0C499 25 510 103 523 165L492 165L475 103C466 71 457 54 448 49C435 44 371 39 304 39C255 39 228 40 162 46C165 64 256 605 256 613C263 651 270 658 307 661Z" stroke="rgb(0, 0, 0)" stroke-width="8" fill="rgb(0, 0, 0)" style="transform:matrix(0.017,0,0,-0.017,0,0);"></path></g><g style="transform:matrix(1,0,0,1,160,120.60000610351562);"><path d="M297 714L242 714L-37 -169L18 -169Z" stroke="rgb(0, 0, 0)" stroke-width="8" fill="rgb(0, 0, 0)" style="transform:matrix(0.017,0,0,-0.017,0,0);"></path></g><g style="transform:matrix(1,0,0,1,168.4000244140625,120.60000610351562);"><path d="M16 23L16 -3C203 -3 203 0 239 0C275 0 275 -3 468 -3L468 82C353 77 307 81 122 77L304 270C401 373 431 428 431 503C431 618 353 689 226 689C154 689 105 669 56 619L39 483L68 483L81 529C97 587 133 612 200 612C286 612 341 558 341 473C341 398 299 324 186 204Z" stroke="rgb(0, 0, 0)" stroke-width="8" fill="rgb(0, 0, 0)" style="transform:matrix(0.017,0,0,-0.017,0,0);"></path></g></g></g></g></g></g><g><g><g><g><g><g style="transform:matrix(1,0,0,1,149.5999755859375,56.600006103515625);"><path d="M349 664L352 692L238 689C222 689 204 689 161 690L97 692L94 664L141 662C165 661 176 653 176 635L81 55C77 37 65 30 21 23L16 -3L57 -2C88 -1 150 0 170 0L467 -1L500 0C499 25 510 103 523 165L492 165L475 103C466 71 457 54 448 49C435 44 371 39 304 39C255 39 228 40 162 46C165 64 256 605 256 613C263 651 270 658 307 661Z" stroke="rgb(0, 0, 0)" stroke-width="8" fill="rgb(0, 0, 0)" style="transform:matrix(0.017,0,0,-0.017,0,0);"></path></g><g style="transform:matrix(1,0,0,1,162,56.600006103515625);"><path d="M297 714L242 714L-37 -169L18 -169Z" stroke="rgb(0, 0, 0)" stroke-width="8" fill="rgb(0, 0, 0)" style="transform:matrix(0.017,0,0,-0.017,0,0);"></path></g><g style="transform:matrix(1,0,0,1,170.4000244140625,56.600006103515625);"><path d="M16 23L16 -3C203 -3 203 0 239 0C275 0 275 -3 468 -3L468 82C353 77 307 81 122 77L304 270C401 373 431 428 431 503C431 618 353 689 226 689C154 689 105 669 56 619L39 483L68 483L81 529C97 587 133 612 200 612C286 612 341 558 341 473C341 398 299 324 186 204Z" stroke="rgb(0, 0, 0)" stroke-width="8" fill="rgb(0, 0, 0)" style="transform:matrix(0.017,0,0,-0.017,0,0);"></path></g></g></g></g></g></g><g><g><g><g><g><g style="transform:matrix(1,0,0,1,206.5333251953125,64.5);"><path d="M237 -16C473 -16 572 316 576 504C578 618 546 702 419 702C159 702 72 412 69 199C67 80 101 -16 237 -16ZM401 676C536 676 506 491 485 381L169 381C194 485 272 676 401 676ZM253 13C102 13 147 261 163 349L479 349C454 237 396 13 253 13Z" stroke="rgb(0, 0, 0)" stroke-width="8" fill="rgb(0, 0, 0)" style="transform:matrix(0.017,0,0,-0.017,0,0);"></path></g><g><g><g><g style="transform:matrix(1,0,0,1,216.5333251953125,69.88333740234376);"><path d="M263 689C108 689 29 566 29 324C29 207 50 106 85 57C120 8 176 -20 238 -20C389 -20 465 110 465 366C465 585 400 689 263 689ZM245 654C342 654 381 556 381 316C381 103 343 15 251 15C154 15 113 116 113 360C113 571 150 654 245 654Z" stroke="rgb(0, 0, 0)" stroke-width="8" fill="rgb(0, 0, 0)" style="transform:matrix(0.0119,0,0,-0.0119,0,0);"></path></g></g></g></g></g></g></g></g></g><g><g><g><g><g><g style="transform:matrix(1,0,0,1,297.0333251953125,65);"><path d="M237 -16C473 -16 572 316 576 504C578 618 546 702 419 702C159 702 72 412 69 199C67 80 101 -16 237 -16ZM401 676C536 676 506 491 485 381L169 381C194 485 272 676 401 676ZM253 13C102 13 147 261 163 349L479 349C454 237 396 13 253 13Z" stroke="rgb(0, 0, 0)" stroke-width="8" fill="rgb(0, 0, 0)" style="transform:matrix(0.017,0,0,-0.017,0,0);"></path></g><g><g><g><g style="transform:matrix(1,0,0,1,307.0333251953125,70.38333740234376);"><path d="M418 -3L418 27L366 30C311 33 301 44 301 96L301 700L60 598L67 548L217 614L217 96C217 44 206 33 152 30L96 27L96 -3C250 0 250 0 261 0C292 0 402 -3 418 -3Z" stroke="rgb(0, 0, 0)" stroke-width="8" fill="rgb(0, 0, 0)" style="transform:matrix(0.0119,0,0,-0.0119,0,0);"></path></g></g></g></g></g></g></g></g></g><g><g><g><g><g><g style="transform:matrix(1,0,0,1,387.5333251953125,65);"><path d="M237 -16C473 -16 572 316 576 504C578 618 546 702 419 702C159 702 72 412 69 199C67 80 101 -16 237 -16ZM401 676C536 676 506 491 485 381L169 381C194 485 272 676 401 676ZM253 13C102 13 147 261 163 349L479 349C454 237 396 13 253 13Z" stroke="rgb(0, 0, 0)" stroke-width="8" fill="rgb(0, 0, 0)" style="transform:matrix(0.017,0,0,-0.017,0,0);"></path></g><g><g><g><g style="transform:matrix(1,0,0,1,397.5333251953125,70.38333740234376);"><path d="M16 23L16 -3C203 -3 203 0 239 0C275 0 275 -3 468 -3L468 82C353 77 307 81 122 77L304 270C401 373 431 428 431 503C431 618 353 689 226 689C154 689 105 669 56 619L39 483L68 483L81 529C97 587 133 612 200 612C286 612 341 558 341 473C341 398 299 324 186 204Z" stroke="rgb(0, 0, 0)" stroke-width="8" fill="rgb(0, 0, 0)" style="transform:matrix(0.0119,0,0,-0.0119,0,0);"></path></g></g></g></g></g></g></g></g></g></svg>
</svg>
